<?xml version="1.0" encoding="UTF-8"?>
<svg width="50px" height="50px" viewBox="0 0 50 50" version="1.1" xmlns="http://www.w3.org/2000/svg" xmlns:xlink="http://www.w3.org/1999/xlink">
    <!-- Generator: Sketch 44 (41411) - http://www.bohemiancoding.com/sketch -->
    <title>icon/subject/health</title>
    <desc>Created with Sketch.</desc>
    <defs>
        <path d="M0.569574001,1.34986355 C1.31444496,0.645526839 2.42278941,0.19 3.66,0.19 L6.3898,0.149063234 L6.3898,2 L0.569574001,2 L0.569574001,1.34986355 L0.569574001,1.34986355 Z" id="path-1"></path>
    </defs>
    <g id="Symbols" stroke="none" stroke-width="1" fill="none" fill-rule="evenodd">
        <g id="icon/subject/health">
            <g id="Group" transform="translate(5.000000, 7.000000)">
                <g id="Page-1">
                    <g id="Group-15">
                        <path d="M11.1699,16.7998 L14.2399,6.6498 L17.1599,14.9998 L18.7099,12.9998 L21.1499,16.8598 L35.1499,16.8598 C38.4199,8.3798 33.8899,2.0598 29.3199,0.8598 C25.2479,-0.3632 20.8599,1.2718 18.5799,4.8598 L18.2899,5.1898 L18.1399,4.9998 C15.8599,1.4118 11.4719,-0.2232 7.3999,0.9998 C2.8399,2.1598 -1.6701,8.4498 1.5199,16.8798 L11.1699,16.7998 Z" id="Fill-3" fill="#FFFFFF"></path>
                        <path d="M34.2305,19 L20.0005,19 L18.5205,16.7 L16.4395,19.34 L14.3795,13.47 L12.7305,18.92 L2.4595,18.92 C4.8795,23.63 9.7095,28.92 18.1295,34.22 L18.3595,34.36 L18.6095,34.22 L18.7095,34.15 C17.5305,33.726 16.7095,32.649 16.6095,31.4 C16.6095,29.62 18.4105,28.14 20.6695,28.1 L24.6695,28.04 L24.6695,29.9 C25.5305,29.21 26.3495,28.52 27.0995,27.84 C25.5995,26.27 25.3205,24.04 26.5195,22.84 C27.7195,21.64 29.8895,21.84 31.5195,23.21 C32.5515,21.894 33.4595,20.484 34.2305,19" id="Fill-5" fill="#FFFFFF"></path>
                        <path d="M28.6904,34.5195 C30.9504,34.5195 32.7804,32.9995 32.7504,31.2305 C32.7504,30.3495 31.5194,29.2305 31.5194,29.2305 L30.0594,30.7305 L27.2504,28.0405 L24.6204,28.0405 L24.7194,34.4995 L28.6904,34.5195 Z" id="Fill-7" fill="#FFFFFF"></path>
                        <path d="M28.6797,34.7197 C31.0497,34.7197 32.9697,33.1107 32.9407,31.2307 C32.9407,30.2897 31.6507,29.1507 31.6507,29.1507 L30.1197,30.7407 L27.1797,27.8797 L24.4197,27.8797 L24.5197,34.7307 L28.6797,34.7197 Z" id="Stroke-9" stroke="#FFFFFF"></path>
                        <path d="M32.9004,33.5 C34.5194,35.07 36.9004,35.32 38.0994,34.04 C39.2994,32.76 39.0194,30.43 37.4004,28.86 L34.5494,26.1 L30.0494,30.74 L32.9004,33.5 Z" id="Fill-11" fill="#FFFFFF"></path>
                        <path d="M27.0596,28 L29.9996,30.81 L34.6206,26 L31.6906,23.16 C30.0196,21.54 27.6106,21.29 26.3306,22.6 C25.0496,23.91 25.3896,26.34 27.0596,28 Z M32.9196,33.65 C34.5896,35.27 36.9996,35.52 38.2806,34.21 C39.5596,32.9 39.2306,30.49 37.5596,28.87 L34.6206,26 L29.9996,30.81 L32.9196,33.65 Z" id="Stroke-13" stroke="#FFFFFF"></path>
                    </g>
                    <g id="Group-18" transform="translate(17.000000, 28.000000)">
                        <mask id="mask-2" fill="white">
                            <use xlink:href="#path-1"></use>
                        </mask>
                        <g id="Clip-17"></g>
                        <path d="M3.5498,2 L6.3898,2 L6.3208,-2.63 L3.4798,-2.63 C1.8598,-2.63 0.5498,-1.54 0.5698,-0.27 C0.5898,1 1.9198,2 3.5498,2 Z" id="Stroke-16" stroke="#FFFFFF" mask="url(#mask-2)"></path>
                    </g>
                    <path d="M20.77,34.8398 L24.93,34.7798 L24.82,27.9298 L20.66,27.9998 C18.29,27.9998 16.37,29.6108 16.4,31.4898 C16.43,33.3698 18.4,34.8798 20.77,34.8398 Z" id="Stroke-19" stroke="#FFFFFF"></path>
                </g>
            </g>
        </g>
    </g>
</svg>